<svg width="76" height="80" viewBox="0 0 76 80" fill="none" xmlns="http://www.w3.org/2000/svg">
<g clip-path="url(#clip0)">
<path d="M60.307 37.1102C61.3683 37.5476 61.533 38.2982 61.5701 39.2269C61.7336 43.3337 62.9509 47.1408 65.019 50.6997C66.5906 53.4048 65.8859 55.3507 62.9918 56.6222C62.7107 56.7463 62.4494 57.1984 62.4048 57.5276C61.372 65.0766 56.2265 70.848 48.7924 72.5274C47.0351 72.9242 45.1689 72.8996 43.3497 72.9463C42.4184 72.9696 42.0915 73.2632 42.1385 74.1735C42.198 75.3173 42.1707 76.4671 42.1546 77.6145C42.1398 78.6366 41.6618 79.1563 40.5584 79.1513C34.7367 79.1292 28.915 79.1464 23.0921 79.1366C21.9231 79.1342 21.5577 78.7681 21.554 77.5961C21.5416 74.2657 21.5639 70.934 21.5429 67.6036C21.5379 66.7572 21.8389 66.2633 22.6686 65.9243C25.8401 64.6307 29.5912 60.933 30.8618 57.8826C28.4197 56.9588 26.7503 55.2783 26.2698 52.6653C25.9639 50.9995 26.3503 49.4295 27.3101 48.0142C29.5676 44.6826 33.0488 44.3276 37.3819 46.986C39.2457 45.6777 40.9076 42.1593 40.7082 39.8669C40.432 39.8387 40.1435 39.7822 39.855 39.781C31.98 39.7711 24.1063 39.7699 16.2314 39.7564C15.6246 39.7552 15.185 39.7895 15.0624 40.5659C14.1125 46.5425 14.0828 52.4491 16.5423 58.1234C17.1404 59.5018 18.0407 60.7585 18.8618 62.0325C19.32 62.7425 19.5379 63.4071 18.7887 63.987C18.0296 64.5742 17.398 64.2167 16.8828 63.5484C14.0296 59.8507 12.6748 55.5977 12.1596 51.0338C11.6927 46.9111 12.0952 42.8399 12.8444 38.781C13.0735 37.5427 13.8673 37.1803 15.102 37.1741C14.6166 35.7257 14.1299 34.4162 13.7509 33.0771C13.5862 32.4948 13.5032 31.8253 13.6184 31.2405C14.2921 27.7934 15.0302 24.3586 15.7584 20.9213C16.0766 19.4189 17.0735 19.07 18.2599 20.0515C20.8952 22.2333 23.5379 24.4077 26.1286 26.6399C26.6339 27.0748 27.05 27.7136 27.2803 28.3401C28.2525 30.9789 29.1577 33.6435 30.0432 36.3129C30.276 37.0144 30.6017 37.3572 31.393 37.2822C32.5683 37.1717 34.1311 37.5697 34.8159 36.9616C35.4104 36.4346 35.0302 34.8093 35.0512 33.6693C35.0698 32.6705 35.0426 31.6705 35.0438 30.6718C35.045 29.8634 35.3546 29.286 36.2587 29.2627C37.237 29.2369 37.5503 29.8597 37.5553 30.7037C37.5664 32.5538 37.5899 34.4051 37.5466 36.2552C37.5293 37.0242 37.7807 37.2896 38.5683 37.2908C39.4389 37.2933 39.4029 36.8019 39.4005 36.2061C39.3918 34.356 39.4166 32.5046 39.4129 30.6546C39.4116 29.8364 39.6766 29.2651 40.6104 29.2713C41.5317 29.2774 41.8252 29.8487 41.8277 30.6595C41.8339 32.5464 41.8562 34.4346 41.8351 36.3215C41.8277 36.9653 42.0259 37.2368 42.7218 37.2699C45.0451 37.3793 45.055 37.41 46.0841 35.3302C48.3194 30.8143 50.5361 26.2885 52.7726 21.7739C54.0197 19.2592 56.0382 18.5503 58.6129 19.7407C60.2017 20.4754 61.7745 21.2444 63.3299 22.0454C65.3819 23.1031 66.1212 25.2345 65.1231 27.3254C63.7658 30.1656 62.3416 32.9752 60.9472 35.7994C60.7491 36.1926 60.5596 36.5881 60.307 37.1102ZM31.8289 76.7153C34.1051 76.7153 36.3813 76.6956 38.6574 76.7263C39.4302 76.7362 39.7224 76.4561 39.6878 75.6846C39.6395 74.6133 39.6729 73.5384 39.6779 72.466C39.6841 70.821 39.9924 70.5249 41.6221 70.4856C43.5974 70.4377 45.6085 70.5851 47.5392 70.2633C54.4779 69.1085 59.2481 63.697 60.006 56.3544C60.2054 54.4208 60.2054 54.4208 62.141 54.1996C63.1478 54.0842 63.5738 53.395 63.1701 52.4822C62.9757 52.0437 62.7169 51.6321 62.4816 51.2132C60.681 48.0044 59.5392 44.5794 59.2147 40.9198C59.1355 40.0217 58.8779 39.733 57.959 39.7416C53.5194 39.7846 49.0785 39.7945 44.6389 39.7355C43.6197 39.722 43.2977 40.0868 43.1726 41.018C42.7652 44.0524 41.4413 46.6629 39.2197 48.7919C37.8971 50.0584 37.0314 50.8066 35.6098 48.8594C35.5243 48.7427 35.3881 48.6629 35.2704 48.5707C33.85 47.4602 32.1262 47.3079 30.6735 48.1641C29.1924 49.0376 28.4667 50.6862 28.785 52.4564C29.0711 54.0436 30.411 55.2795 32.1621 55.5706C34.1163 55.895 34.4147 56.4613 33.5553 58.2696C31.6531 62.2708 28.7751 65.3911 24.9002 67.584C24.3181 67.9132 24.0172 68.2731 24.0258 68.966C24.0519 71.1859 24.0469 73.407 24.0048 75.6268C23.9887 76.445 24.2971 76.7411 25.1144 76.7288C27.3509 76.6932 29.5912 76.7153 31.8289 76.7153ZM58.0457 35.7184C57.1639 35.2773 56.307 34.8363 55.4401 34.4174C54.6711 34.0464 54.0593 33.5955 54.4841 32.6238C54.8271 31.8388 55.4884 31.7282 56.5794 32.2381C57.45 32.6447 58.3194 33.0526 59.2865 33.5046C59.8587 32.3474 60.3899 31.2749 60.946 30.1533C60.2376 29.7885 59.6345 29.5035 59.0562 29.1742C58.4073 28.8057 58.2067 28.2394 58.546 27.5723C58.8816 26.9126 59.4376 26.7087 60.1385 27.0146C60.7466 27.2799 61.3485 27.5612 62.0271 27.8684C62.2351 27.4986 62.4271 27.189 62.5881 26.8647C63.3732 25.2849 63.1998 24.721 61.6531 23.9556C60.2525 23.264 58.8469 22.5797 57.4228 21.9348C56.2599 21.409 55.6036 21.6498 55.0463 22.7726C52.8098 27.2824 50.5831 31.797 48.359 36.3142C48.2376 36.5599 48.1732 36.8326 48.0407 37.211C48.5361 37.2343 48.8977 37.265 49.2593 37.265C51.5714 37.265 53.8847 37.1962 56.193 37.2798C57.3113 37.3191 57.8711 36.9296 58.0457 35.7184ZM16.2537 30.6865C19.1664 31.8376 22.0258 30.8093 23.8748 27.9801C22.5794 26.8942 21.2915 25.7787 19.959 24.7173C19.419 24.2861 17.5342 24.8733 17.372 25.5379C16.9522 27.2517 16.6178 28.985 16.2537 30.6865ZM25.3571 30.2442C24.3986 31.1361 23.5998 31.8437 22.8543 32.6029C22.6995 32.7614 22.6475 33.1422 22.7169 33.3707C23.0463 34.4641 23.4091 35.5488 23.8178 36.6152C23.9156 36.8707 24.2277 37.2085 24.4605 37.2232C25.476 37.2896 26.4989 37.2515 27.7348 37.2515C26.9163 34.8388 26.1782 32.6619 25.3571 30.2442ZM21.3707 37.2576C20.9646 36.0451 20.6636 35.0611 20.2921 34.1041C20.2104 33.8928 19.881 33.6521 19.6543 33.641C18.6636 33.5906 17.668 33.6189 16.5745 33.6189C16.9286 34.6901 17.2667 35.7786 17.663 36.8449C17.7311 37.0292 18.0432 37.2306 18.25 37.2392C19.2098 37.281 20.1732 37.2576 21.3707 37.2576Z" fill="#1D3D4F"/>
<path d="M43.2087 26.2847C38.8991 28.5869 37.3251 28.5906 33.5715 26.2675C32.9734 27.023 32.353 27.7884 31.7536 28.5697C31.3003 29.1606 30.7975 29.6593 29.974 29.3805C29.1728 29.109 29.1691 28.4149 29.1728 27.7269C29.1827 25.6189 29.1852 23.5096 29.1827 21.4015C29.1814 20.0895 29.7325 19.0772 30.7369 18.2259C31.07 17.9433 31.3301 17.4052 31.3598 16.9667C31.5022 14.8303 31.3424 12.6522 31.7102 10.5614C31.9963 8.92993 32.8644 7.38941 33.5443 5.83907C33.8762 5.08232 34.5536 4.82311 35.3053 5.25677C36.0644 5.69534 36.0434 6.34766 35.6694 7.07984C35.1406 8.11545 34.67 9.18054 34.088 10.4164C37.0873 10.4164 39.7808 10.4164 42.8174 10.4164C42.2291 9.12649 41.8787 7.93977 41.2025 6.97664C40.2737 5.65357 39.1319 4.46808 38.0136 3.28628C37.4205 2.65853 36.9288 2.07008 37.6335 1.29491C38.3257 0.533251 39.0217 0.86617 39.6793 1.43864C43.4935 4.76292 45.6892 8.82674 45.5393 13.9729C45.5208 14.6018 45.5641 15.2333 45.5146 15.8586C45.4242 17.0011 45.5691 17.9224 46.6031 18.7578C47.1914 19.2332 47.5072 20.3044 47.5505 21.1288C47.6681 23.3793 47.6248 25.6422 47.5319 27.8952C47.5121 28.3842 47.0972 29.1643 46.727 29.2539C46.2626 29.367 45.5257 29.0414 45.1393 28.6667C44.4025 27.9567 43.8341 27.0783 43.2087 26.2847ZM38.4917 12.9606C38.4917 12.9655 38.4917 12.9716 38.4917 12.9766C37.2607 12.9766 36.0273 12.9397 34.7988 13.0023C34.4842 13.0183 33.9121 13.3709 33.9245 13.5355C34.0533 15.3094 33.0811 17.2726 35.3412 18.6448C36.888 19.5846 36.8297 21.3388 35.5914 23.2909C35.1071 24.0538 35.2359 24.453 35.9728 24.8707C37.2966 25.6201 38.6576 25.7282 40.0595 25.1791C41.6434 24.5587 41.7078 24.3449 40.9152 22.8695C39.9715 21.1103 40.114 19.3376 41.6644 18.4384C42.9969 17.6644 43.1592 16.705 43.0477 15.4372C43.0019 14.9237 43.0068 14.3979 43.0551 13.8844C43.127 13.1289 42.7777 12.9274 42.0743 12.9508C40.8805 12.9901 39.6855 12.9606 38.4917 12.9606ZM44.7678 24.2245C44.8607 24.2 44.9536 24.1742 45.0465 24.1496C45.0465 23.0992 45.1121 22.0415 45.0081 21.001C44.9746 20.673 44.5313 20.243 44.187 20.1312C43.8861 20.033 43.2941 20.2123 43.1319 20.4605C42.9449 20.7467 42.9474 21.3204 43.1171 21.6374C43.5988 22.5366 44.2081 23.3671 44.7678 24.2245ZM31.7536 24.1435C31.839 24.1705 31.9245 24.1975 32.0112 24.2245C32.5771 23.3732 33.1926 22.5501 33.683 21.6582C33.8564 21.3425 33.87 20.7713 33.688 20.4813C33.5319 20.2332 32.9412 20.0551 32.639 20.1497C32.2886 20.259 31.8279 20.6779 31.7932 21.0022C31.6855 22.0391 31.7536 23.0943 31.7536 24.1435Z" fill="#1D3D4F"/>
<path d="M52.635 5.70894C52.5991 6.07625 52.6734 6.47059 52.5124 6.70769C52.214 7.1438 51.7954 7.76787 51.3954 7.79244C50.9929 7.81701 50.2313 7.24208 50.188 6.86739C50.0778 5.90181 49.736 5.56889 48.7564 5.51606C48.4096 5.49764 47.8078 4.74949 47.8487 4.39569C47.9007 3.95221 48.448 3.29005 48.8654 3.22126C49.7038 3.08244 50.0295 2.822 50.1607 1.96207C50.2227 1.55667 50.8765 1.0321 51.3372 0.942425C52.0542 0.802378 52.505 1.34782 52.5261 2.08614C52.5434 2.6967 52.5843 3.16843 53.4103 3.15001C54.2016 3.13158 54.8319 3.49153 54.8307 4.37112C54.8282 5.30599 54.2004 5.62908 53.3323 5.62171C53.1168 5.61926 52.9025 5.67331 52.635 5.70894Z" fill="#1D3D4F"/>
<path d="M55.5996 12.6766C56.0541 12.3597 56.4838 11.8314 56.9693 11.7749C57.7371 11.6865 58.1284 11.544 58.0925 10.6865C58.0603 9.90641 58.5309 9.4187 59.3346 9.42238C60.095 9.42607 60.5098 9.92483 60.5098 10.6398C60.5098 11.4273 60.7674 11.7872 61.6132 11.7405C62.3748 11.6975 62.812 12.1754 62.8207 12.9027C62.8293 13.6312 62.4083 14.1176 61.6392 14.0783C60.8182 14.0378 60.5086 14.3412 60.5135 15.1582C60.5185 15.9284 60.0702 16.4296 59.2541 16.4026C58.5074 16.3781 58.0479 15.91 58.0962 15.1791C58.1569 14.2466 57.6999 14.1213 56.9024 14.0415C56.4454 13.996 56.0343 13.4923 55.6021 13.1938C55.6021 13.0206 55.6008 12.8486 55.5996 12.6766Z" fill="#1D3D4F"/>
<path d="M19.9825 11.3451C19.0537 11.1178 17.819 11.4397 17.8029 10.0454C17.7868 8.65105 18.9744 8.89306 19.8995 8.74687C20.1992 7.8685 19.8524 6.42627 21.4462 6.55771C22.7181 6.66213 22.4803 7.78865 22.6165 8.70387C22.9026 8.74564 23.1849 8.81566 23.4685 8.82058C24.2561 8.83409 24.7763 9.15595 24.7986 9.98518C24.8196 10.8046 24.3404 11.2358 23.5441 11.2087C22.7614 11.1817 22.4952 11.4901 22.5212 12.2468C22.5459 12.9667 22.1583 13.4556 21.3918 13.4986C20.5707 13.5453 20.1645 13.0773 20.0667 12.3082C20.0295 12.0159 20.0147 11.7235 19.9825 11.3451Z" fill="#1D3D4F"/>
<path d="M51.0662 43.0718C53.2656 43.0718 55.1913 44.7671 55.4192 46.912C55.5022 47.6933 55.2929 48.3506 54.4223 48.5041C53.5641 48.6552 53.0712 48.1835 52.9573 47.3653C52.8111 46.315 52.2984 45.6184 51.1851 45.5926C50.0161 45.5656 49.4625 46.272 49.2929 47.3665C49.1666 48.1786 48.6848 48.654 47.8229 48.5041C47.0118 48.3628 46.8 47.7584 46.8322 47.0103C46.9214 44.9243 48.904 43.0718 51.0662 43.0718Z" fill="#1D3D4F"/>
<path d="M32.0741 50.3247C33.2196 50.4193 33.7063 50.9021 33.5416 51.5864C33.4351 52.0274 32.879 52.5716 32.432 52.6748C31.6951 52.8443 31.1787 52.2338 31.2765 51.5483C31.3484 51.0581 31.8623 50.6318 32.0741 50.3247Z" fill="#1D3D4F"/>
</g>
<defs>
<clipPath id="clip0">
<rect width="75.7895" height="80" fill="white"/>
</clipPath>
</defs>
</svg>
