<svg width="76" height="80" viewBox="0 0 76 80" fill="none" xmlns="http://www.w3.org/2000/svg">
<g clip-path="url(#clip0)">
<path d="M37.6839 75.9104C31.1097 75.9104 24.5343 75.8833 17.9601 75.9362C16.8577 75.9448 16.5975 75.6131 16.6184 74.5652C16.685 71.1868 16.6209 67.8061 16.6641 64.4277C16.6776 63.3798 16.9181 62.3356 16.965 61.2865C16.9847 60.8479 16.9045 60.2927 16.6443 59.972C12.6364 55.0409 10.6596 49.4218 10.7842 43.0804C10.799 42.3286 10.6411 41.9207 9.77787 41.8544C8.83325 41.7819 7.89355 41.5632 6.96618 41.3458C4.90428 40.8605 3.58106 39.0534 3.80303 37.0891C4.02131 35.1616 5.56034 33.911 7.75666 33.8975C9.48807 33.8864 11.2207 33.8877 12.9521 33.8987C17.256 33.9258 20.212 36.8274 20.2983 41.1062C20.3797 45.1357 21.6141 48.7658 24.025 52.0115C24.4455 52.5778 24.8167 52.6748 25.5233 52.5237C27.3497 52.1306 29.2081 51.8812 31.0592 51.611C31.6659 51.5225 32.1814 51.4255 32.227 50.6724C32.2751 49.8801 33.0742 49.0766 31.9619 48.3309C30.519 47.3629 29.5571 45.9563 28.959 44.3347C28.7297 43.7131 28.4386 43.4084 27.7197 43.2966C25.7872 42.9956 24.3851 41.8998 23.8388 39.9957C23.2876 38.0731 23.7475 36.3164 25.3532 35.0621C26.1856 34.4122 25.9611 33.6395 25.9759 32.8729C26.0561 28.5683 27.9848 25.3055 31.8324 23.437C36.5309 21.1545 44.6811 21.5242 48.0502 27.5696C49.0984 29.4492 49.5337 31.4344 49.4165 33.5523C49.3808 34.2046 49.5781 34.6469 50.0936 35.0854C51.603 36.368 52.1259 38.0326 51.582 39.9343C51.037 41.836 49.6866 42.9809 47.753 43.2978C46.9945 43.4219 46.6838 43.7278 46.4433 44.3924C45.8514 46.0214 44.8266 47.3801 43.4121 48.3715C42.3701 49.1012 43.1248 49.8715 43.1729 50.6356C43.2185 51.3567 43.6822 51.5139 44.3123 51.6085C46.3003 51.9083 48.2771 52.2952 50.2674 52.5741C50.5757 52.6171 51.0542 52.3628 51.2602 52.0962C53.7981 48.8088 55.0658 45.0853 55.1225 40.9293C55.1682 37.578 57.2017 35.0056 60.4327 34.1309C61.0049 33.9761 61.6166 33.9159 62.2122 33.9061C64.0497 33.8766 65.8884 33.8828 67.7258 33.8963C69.8445 33.911 71.3564 35.1505 71.6005 37.0486C71.841 38.9109 70.5819 40.7856 68.6853 41.2893C67.8356 41.5153 66.9563 41.6947 66.0807 41.7475C64.9265 41.8163 64.575 42.2807 64.6034 43.4539C64.7045 47.756 63.7463 51.8493 61.656 55.622C60.8249 57.1232 59.7039 58.4622 58.7814 59.9168C58.5336 60.3062 58.4189 60.8553 58.4386 61.3221C58.4805 62.3713 58.7321 63.4142 58.7444 64.4621C58.7864 67.8761 58.7198 71.2925 58.7851 74.7052C58.8049 75.7199 58.4485 75.9288 57.515 75.9239C50.9038 75.8944 44.2938 75.9104 37.6839 75.9104ZM23.6637 63.058C24.5319 63.058 25.252 63.058 26.1128 63.058C26.1128 66.5198 26.1128 69.9105 26.1128 73.3895C29.4634 73.3895 32.6747 73.3944 35.8847 73.3772C36.0536 73.376 36.3681 73.1917 36.3668 73.0984C36.3385 71.6721 36.7491 69.9805 36.1251 68.8675C33.5108 64.2017 30.5918 59.7042 27.7505 55.1662C27.6 54.9267 27.1142 54.7104 26.8367 54.7633C23.0791 55.4746 19.8346 58.6588 19.3524 62.4609C19.0306 64.9928 19.1563 67.5825 19.0984 70.1476C19.075 71.1905 19.0947 72.2347 19.0947 73.2888C20.6892 73.2888 22.1419 73.2888 23.6624 73.2888C23.6637 69.8404 23.6637 66.5026 23.6637 63.058ZM49.3376 73.4018C49.3376 69.8638 49.3376 66.4756 49.3376 63.058C50.2009 63.058 50.921 63.058 51.7596 63.058C51.7596 64.8098 51.7596 66.4891 51.7596 68.1685C51.7596 69.8785 51.7596 71.5886 51.7596 73.3944C53.0446 73.3944 54.1705 73.36 55.2927 73.4067C56.0573 73.4387 56.3447 73.2052 56.3311 72.3957C56.2855 69.6525 56.3533 66.908 56.304 64.1661C56.225 59.7706 53.343 56.1441 49.1255 54.8837C48.2179 54.6122 47.8183 54.8296 47.362 55.5827C45.1164 59.2841 42.9003 63.0076 40.503 66.6107C39.3105 68.4031 38.7481 70.2065 38.9331 72.3318C39.0022 73.1229 39.1576 73.4411 40.0146 73.4202C42.2739 73.3662 44.5343 73.403 46.7948 73.403C47.5976 73.4018 48.3979 73.4018 49.3376 73.4018ZM46.8651 33.8103C47.1499 31.9786 46.4729 29.7735 45.4654 28.1507C42.6784 23.6606 33.3726 23.6827 30.4154 27.5499C28.9788 29.4295 28.3042 31.4467 28.4769 33.8926C30.0627 33.8926 31.5401 33.8594 33.0163 33.9C35.7268 33.9724 37.785 32.8705 39.2451 30.6113C39.4634 30.2735 39.7236 29.9614 40.0874 29.4725C41.6548 32.169 43.4183 34.3127 46.8651 33.8103ZM30.7755 36.3827C30.7755 38.1763 30.688 39.7598 30.7928 41.3286C31.0271 44.8322 33.824 47.6221 37.1783 47.8137C40.8162 48.0214 43.8548 45.7573 44.4468 42.1492C44.7341 40.3986 44.6071 38.5792 44.6219 36.7906C44.6231 36.5989 44.3555 36.3299 44.1471 36.223C42.7277 35.497 41.291 34.8041 39.6693 34.0081C37.4151 36.2893 34.2174 36.5916 30.7755 36.3827ZM53.4109 53.4844C54.8574 54.8419 56.2065 56.1097 57.5828 57.3996C59.789 54.5974 61.4205 50.9058 61.894 46.6307C60.4204 46.3875 59.1391 46.1356 57.8442 45.9919C57.5359 45.9575 56.9612 46.2204 56.8922 46.4575C56.1017 49.1552 54.8142 51.595 53.4109 53.4844ZM22.0704 53.5852C20.5449 51.5668 19.2895 49.0766 18.4978 46.3555C18.4423 46.1651 18.007 45.9391 17.7789 45.9686C16.389 46.1455 15.0091 46.3924 13.4812 46.6393C14.0669 50.9021 15.5788 54.6245 17.8023 57.364C19.1946 56.1306 20.5807 54.9045 22.0704 53.5852ZM13.2937 44.073C14.009 43.976 14.5565 43.9133 15.0979 43.8249C18.0502 43.3445 18.0489 43.3421 17.7431 40.3704C17.5322 38.3249 15.8785 36.5916 13.7956 36.4736C11.6869 36.3532 9.567 36.3925 7.4533 36.4454C7.0895 36.454 6.55306 36.8115 6.42604 37.1345C6.29162 37.4773 6.43961 38.0522 6.67145 38.3802C6.88233 38.6788 7.35094 38.8716 7.74063 38.9539C8.80735 39.18 9.8938 39.3163 10.9691 39.5031C12.4897 39.7672 13.2456 40.6345 13.29 42.1676C13.3073 42.7536 13.2937 43.3384 13.2937 44.073ZM62.0987 44.0779C62.0987 43.5423 62.1 43.1652 62.0987 42.7893C62.0913 40.5067 62.7116 39.7758 64.9573 39.4122C65.9661 39.2488 66.9822 39.1161 67.9774 38.8937C68.7149 38.7291 69.1132 38.191 69.0811 37.4269C69.0515 36.7365 68.5878 36.4368 67.9466 36.4343C65.8304 36.4233 63.7105 36.3557 61.6005 36.4601C59.5584 36.5608 57.8602 38.336 57.6666 40.3753C57.5939 41.1431 57.5174 41.9195 57.5593 42.6861C57.5754 42.9674 57.8898 43.4195 58.1353 43.4698C59.3709 43.7204 60.6288 43.8642 62.0987 44.0779ZM34.5479 51.8505C34.591 51.9255 34.6675 52.2154 34.8562 52.364C35.6565 52.9955 36.4729 53.6134 37.3263 54.1711C37.5199 54.2977 37.9552 54.2657 38.1612 54.1306C38.9825 53.5876 39.8963 53.0852 40.4907 52.3419C40.8064 51.9476 40.5979 51.0766 40.4808 50.4476C40.4537 50.3039 39.8321 50.2044 39.4819 50.1982C38.43 50.181 37.3694 50.3088 36.3262 50.2142C34.94 50.0889 34.6564 50.2535 34.5479 51.8505ZM45.1312 54.4181C43.0384 53.5888 41.6449 54.0557 40.1293 56.0556C41.0875 56.6269 42.0383 57.1944 43.0582 57.8013C43.7882 56.6121 44.4542 55.5237 45.1312 54.4181ZM35.3149 56.02C33.3258 53.934 32.2554 53.5962 30.2712 54.4402C30.9543 55.5409 31.6277 56.6244 32.3479 57.7817C33.3813 57.1686 34.3086 56.6183 35.3149 56.02ZM47.1561 40.7549C48.467 40.6443 49.3512 39.6972 49.3006 38.5608C49.2501 37.4282 48.3782 36.5793 47.1561 36.535C47.1561 37.9183 47.1561 39.3016 47.1561 40.7549ZM28.2512 36.4933C26.8984 36.7033 26.0721 37.6063 26.1116 38.691C26.1535 39.8384 27.0352 40.7021 28.2512 40.7266C28.2512 39.3397 28.2512 37.9539 28.2512 36.4933ZM37.6654 66.1759C38.848 65.0248 38.8456 63.9093 37.5828 61.3799C37.4212 63.1169 35.9648 64.6304 37.6654 66.1759ZM40.5141 61.8872C41.0086 61.0998 41.349 60.558 41.7399 59.9339C41.106 59.5617 40.5462 59.2337 39.7125 58.746C40.0035 59.8897 40.2218 60.7447 40.5141 61.8872ZM33.6489 59.9339C34.0793 60.585 34.4233 61.1047 34.9154 61.8504C35.1965 60.7128 35.4037 59.8762 35.68 58.7595C34.8426 59.2435 34.3062 59.5531 33.6489 59.9339Z" fill="#2F4858"/>
<path d="M17.9577 15.8669C17.9207 17.2477 17.3608 18.8754 16.288 20.3447C15.6245 21.2525 14.982 22.18 14.3999 23.1395C13.4775 24.6591 13.2642 26.3298 13.2642 28.0976C13.2642 30.9047 10.5141 32.5632 8.05266 31.3334C6.84043 30.7278 6.07585 29.6639 6.16094 28.3789C6.36935 25.2242 4.95364 22.7734 3.17167 20.384C0.864353 17.2894 0.874219 13.4345 3.09767 10.4763C5.21261 7.66306 8.99236 6.47512 12.2727 7.59181C15.6837 8.7515 17.9713 11.9062 17.9577 15.8669ZM10.963 24.4662C11.5907 23.2206 12.0236 22.2169 12.5822 21.2894C13.1618 20.3275 13.8906 19.4553 14.506 18.5118C16.1289 16.018 15.6418 12.9271 13.3492 10.9972C11.1603 9.15567 7.90468 9.24412 5.79591 11.2035C3.65015 13.1986 3.39981 16.3669 5.06709 18.7956C6.11777 20.325 6.99335 21.9749 7.94167 23.5744C8.07239 23.7955 8.16242 24.04 8.27217 24.2721C8.44359 23.6382 8.40412 23.0437 8.45345 22.4552C8.52621 21.5879 8.30793 20.9859 7.50636 20.4503C6.21396 19.5855 5.80824 17.9921 6.30522 16.604C6.84783 15.0855 8.16612 14.1679 9.79147 14.1789C11.312 14.1888 12.6167 15.1617 13.1223 16.6605C13.5922 18.0548 13.0779 19.6641 11.7708 20.5732C11.2318 20.9479 10.8865 21.2918 10.9519 21.9994C11.0148 22.7292 10.963 23.4712 10.963 24.4662ZM11.0136 27.1849C9.99372 27.1849 9.37958 27.1849 8.48181 27.1849C8.70502 27.8753 8.79135 28.4944 9.10828 28.9576C9.2427 29.1553 10.0702 29.1947 10.2132 29.0141C10.561 28.5743 10.6954 27.965 11.0136 27.1849ZM9.5103 18.9565C9.66075 18.9504 9.8112 18.9454 9.96165 18.9393C10.2231 18.5155 10.704 18.0794 10.6806 17.6727C10.6596 17.3152 10.0726 16.9909 9.73474 16.6506C9.37835 17.0106 8.78395 17.341 8.73709 17.7378C8.69146 18.1088 9.22913 18.5474 9.5103 18.9565Z" fill="#2F4858"/>
<path d="M66.4571 28.7721C66.1834 29.5804 66.0021 30.3396 65.6605 31.019C65.4977 31.3421 65.0303 31.5153 64.6986 31.7524C64.6752 31.7696 64.6295 31.7561 64.5938 31.7561C63.5394 31.7217 62.2667 32.0312 61.4948 31.5497C60.7894 31.1099 60.6266 29.8089 60.1789 28.7831C59.4328 29.1308 58.7262 29.5276 57.9715 29.777C57.6533 29.8826 57.2328 29.6799 56.8592 29.6124C56.8308 29.6074 56.8074 29.5669 56.7827 29.5411C56.0563 28.7782 54.9304 28.1087 54.722 27.2242C54.5321 26.4195 55.3362 25.3802 55.7628 24.2918C55.0303 24.0412 54.3237 23.7635 53.5961 23.5633C52.9795 23.3925 52.7378 23.0486 52.7748 22.4184C52.8365 21.3692 52.5023 20.0977 52.9894 19.3324C53.4321 18.6359 54.7442 18.4884 55.7801 18.0536C55.4434 17.3238 55.1536 16.615 54.7923 15.943C54.5148 15.4271 54.5432 15.0487 54.9958 14.6457C55.7838 13.9455 56.4362 12.803 57.3241 12.5917C58.1306 12.3988 59.1751 13.1986 60.2837 13.6249C60.5341 12.9025 60.814 12.2011 61.0187 11.4775C61.1901 10.8731 61.512 10.6089 62.1557 10.6483C63.2089 10.7121 64.4853 10.3743 65.2572 10.8571C65.9589 11.2957 66.1131 12.6015 66.5558 13.6372C67.1995 13.3423 67.8605 13.1028 68.4537 12.7502C69.1677 12.3251 69.6672 12.4701 70.1876 13.0733C70.7844 13.7661 71.8191 14.3091 71.9942 15.0708C72.1607 15.7944 71.4615 16.7133 71.1519 17.5499C71.094 17.7071 71.0755 17.8803 71.0298 18.0843C72.247 18.8214 73.9648 18.6162 74.0906 20.9417C74.2288 23.4748 72.7144 23.7758 70.9115 24.2734C71.2999 25.0977 71.5971 25.8041 71.9609 26.4736C72.2421 26.9908 72.1977 27.3741 71.7525 27.7733C70.9669 28.476 70.3097 29.6148 69.4217 29.8224C68.6115 30.0116 67.5695 29.207 66.4571 28.7721ZM71.4442 21.4282C70.4305 20.5486 69.201 19.9528 68.8125 19.013C68.4093 18.0364 68.8199 16.7268 68.8668 15.7379C67.8309 15.7858 66.5299 16.1985 65.5877 15.7895C64.6234 15.3705 64.0117 14.147 63.4161 13.4701C62.6762 14.2686 62.0423 15.4651 61.0853 15.8398C60.1271 16.2145 58.8446 15.7649 57.7076 15.6777C57.7088 15.5855 55.4163 21.2439 55.5285 21.0891C56.3942 21.8913 57.6028 22.5277 57.969 23.4834C58.3452 24.4638 57.8975 25.7574 57.8272 26.6873C58.9075 26.632 60.2073 26.2119 61.1495 26.6161C62.1187 27.0325 62.7378 28.2549 63.368 28.9649C64.0561 28.1947 64.6665 26.9736 65.6149 26.6001C66.6002 26.2119 67.9111 26.6443 69.1998 26.7242C67.7656 24.1235 68.3415 22.2021 71.4442 21.4282Z" fill="#2F4858"/>
<path d="M37.7814 3.68541C40.3587 3.68418 42.9374 3.67435 45.5147 3.68787C47.3164 3.6977 48.2734 4.63257 48.2907 6.40527C48.3104 8.51457 48.3104 10.6251 48.2931 12.7356C48.2783 14.5046 47.309 15.4665 45.5357 15.4813C43.5231 15.4985 41.5093 15.512 39.498 15.4739C38.7778 15.4604 38.3141 15.6385 38.0255 16.3474C37.7086 17.1262 37.2955 17.8695 36.8861 18.6078C36.2349 19.7834 35.0622 20.3338 33.8808 20.0549C32.655 19.7662 31.8694 18.7945 31.7843 17.4628C31.661 15.5501 31.661 15.5501 29.7249 15.485C28.139 15.4309 27.145 14.4985 27.1167 12.9064C27.0772 10.657 27.0834 8.40524 27.1265 6.15466C27.1549 4.66328 28.1772 3.70875 29.7311 3.69401C32.4145 3.66821 35.0979 3.68664 37.7814 3.68541ZM34.2963 17.41C34.411 17.4333 34.5257 17.4567 34.6404 17.48C35.2521 16.2761 35.8859 15.0833 36.4643 13.8646C36.7714 13.2172 37.1808 12.9334 37.9331 12.9494C40.2256 12.9985 42.5218 12.9518 44.8143 12.9899C45.5443 13.0022 45.8119 12.77 45.791 12.0293C45.7454 10.3782 45.754 8.72587 45.775 7.07356C45.7824 6.45809 45.5838 6.19643 44.9265 6.19766C40.0911 6.2124 35.2558 6.20748 30.4204 6.18906C29.8198 6.1866 29.6201 6.41878 29.6275 6.99863C29.6497 8.68533 29.6534 10.3733 29.6201 12.06C29.6065 12.727 29.8112 13.0231 30.5203 12.9875C31.4008 12.9432 32.2875 13.0268 33.1655 12.9654C34.0497 12.9039 34.3568 13.2418 34.3099 14.1103C34.252 15.2073 34.2963 16.3093 34.2963 17.41Z" fill="#2F4858"/>
<path d="M37.7023 45.7068C35.9425 45.6294 34.4935 44.9034 33.4638 43.3911C33.1074 42.8678 33.1925 42.5594 33.7733 42.229C34.6403 41.7351 35.2618 41.4845 36.0622 42.4882C36.9661 43.6209 38.6395 43.3997 39.6779 42.2327C40.2526 41.5877 40.9949 41.6319 41.9038 42.3924C42.5648 42.9452 41.9334 43.3518 41.667 43.7142C40.7064 45.0152 39.3585 45.6221 37.7023 45.7068Z" fill="#2F4858"/>
<path d="M42.5921 38.8911C42.1346 39.2068 41.7079 39.7178 41.2134 39.7928C40.4439 39.9095 39.9802 39.3591 40.0012 38.568C40.0209 37.8161 40.5105 37.326 41.2196 37.4685C41.719 37.5692 42.1383 38.0668 42.5934 38.3874C42.5934 38.5545 42.5921 38.7228 42.5921 38.8911Z" fill="#2F4858"/>
<path d="M35.5996 38.8187C35.1606 39.1566 34.7635 39.6873 34.2751 39.7892C33.5167 39.9489 33.016 39.433 33.0074 38.6382C33 37.9011 33.4489 37.3716 34.1666 37.4748C34.6673 37.5473 35.1088 38.0202 35.5774 38.3138C35.5848 38.4821 35.5922 38.6504 35.5996 38.8187Z" fill="#2F4858"/>
<path d="M63.3024 24.7745C61.3724 24.745 59.7507 23.0644 59.7877 21.132C59.8247 19.1959 61.5068 17.5891 63.4479 17.6358C65.3988 17.6824 66.9909 19.336 66.9576 21.2843C66.9243 23.2303 65.2767 24.8039 63.3024 24.7745ZM63.089 22.4072C63.2604 22.4109 63.4331 22.4145 63.6045 22.4182C63.8758 22.0128 64.3074 21.6332 64.3802 21.1947C64.4875 20.5448 63.9782 20.0706 63.3529 20.2082C62.9608 20.2942 62.4219 20.8052 62.3935 21.1615C62.3602 21.5546 62.835 21.9895 63.089 22.4072Z" fill="#2F4858"/>
<path d="M43.6083 9.69634C43.9216 10.9715 42.9979 10.7885 42.1593 10.8609C41.0507 10.9568 41.0729 10.3007 41.0951 9.544C41.1296 8.33272 41.1641 8.35975 42.5848 8.29709C43.6799 8.24918 43.7082 8.8536 43.6083 9.69634Z" fill="#2F4858"/>
<path d="M38.937 9.5572C39.1158 10.4859 38.8162 10.8901 37.7815 10.8717C36.8369 10.8545 36.3954 10.6911 36.409 9.61002C36.4213 8.60267 36.7136 8.28326 37.731 8.30046C38.6842 8.31643 39.1479 8.55598 38.937 9.5572Z" fill="#2F4858"/>
<path d="M34.2682 9.67651C34.5371 10.9197 33.7096 10.792 32.892 10.8608C31.7402 10.9566 31.8179 10.2822 31.755 9.49347C31.6687 8.41609 32.2187 8.34361 33.0782 8.30429C34.1696 8.25515 34.4581 8.72198 34.2682 9.67651Z" fill="#2F4858"/>
</g>
<defs>
<clipPath id="clip0">
<rect width="75.4717" height="80" fill="white"/>
</clipPath>
</defs>
</svg>
