<svg width="76" height="80" viewBox="0 0 76 80" fill="none" xmlns="http://www.w3.org/2000/svg">
<g clip-path="url(#clip0)">
<path d="M26.8447 23.5562L25.5636 24.0181C23.5846 24.7318 22.1095 26.4529 21.7118 28.5106L21.2769 30.7772C21.0595 31.9 21.3547 33.0499 22.0885 33.9319C22.8211 34.814 23.9021 35.3201 25.0522 35.3201H36.1643C37.3058 35.3201 38.3818 34.8201 39.1144 33.9491C39.8469 33.0794 40.1521 31.9406 39.9507 30.8239L39.5455 28.5684C39.17 26.4787 37.6888 24.7294 35.6801 24.0046L34.3212 23.5156V21.523C34.3212 21.4665 34.3162 21.4125 34.3076 21.3584C35.2996 20.3547 35.8678 18.9862 35.8678 17.5845V14.619C35.8678 11.7222 33.4972 9.36475 30.5842 9.36475C27.6712 9.36475 25.3005 11.7222 25.3005 14.619V17.6791C25.3005 19.1189 25.8984 20.4321 26.8571 21.3879C26.8521 21.4334 26.8484 21.4776 26.8484 21.5243V23.5562H26.8447ZM37.3564 28.9578L37.7616 31.2133C37.8469 31.685 37.7172 32.1654 37.4083 32.5327C37.0983 32.9012 36.6436 33.1125 36.1618 33.1125H25.0497C24.563 33.1125 24.1071 32.8988 23.7971 32.5253C23.4882 32.1531 23.3634 31.6678 23.4561 31.1936L23.8909 28.9271C24.1417 27.6298 25.072 26.5451 26.3184 26.0954L27.1585 25.792C27.1795 25.8129 27.2005 25.835 27.224 25.8547C28.1801 26.6863 29.3809 27.1028 30.5817 27.1028C31.7812 27.1028 32.9808 26.6876 33.9382 25.8571C33.9715 25.8276 34.0049 25.7957 34.0345 25.7613L34.9203 26.0807C36.1866 26.5377 37.1205 27.6396 37.3564 28.9578ZM27.518 14.619C27.518 12.9396 28.8917 11.5736 30.5817 11.5736C32.0061 11.5736 33.2044 12.5477 33.5453 13.861C33.402 13.9298 33.2563 13.9961 33.1056 14.0551C31.7405 14.5993 30.6373 14.5268 30.3223 14.3069C29.8195 13.9568 29.1264 14.0772 28.7756 14.5772C28.4235 15.076 28.5446 15.7651 29.0474 16.1153C29.5897 16.4936 30.326 16.6816 31.166 16.6816C31.9295 16.6816 32.7782 16.5243 33.6454 16.2123V17.5857C33.6454 18.4297 33.2946 19.2565 32.6818 19.8535C32.3989 20.1299 32.074 20.3437 31.7244 20.4923C31.7009 20.5022 31.6762 20.512 31.6528 20.5218C31.2945 20.6631 30.9115 20.7331 30.5212 20.7233C28.8658 20.6914 27.518 19.3253 27.518 17.6779V14.619ZM30.4779 22.9321C30.5113 22.9333 30.5459 22.9333 30.5792 22.9333C31.0993 22.9333 31.6095 22.8559 32.0987 22.7061V24.4726C31.1734 25.039 29.99 25.0389 29.0659 24.4714V22.7097C29.5143 22.8437 29.9875 22.9235 30.4779 22.9321Z" fill="#1D3D4F"/>
<path d="M13.1121 54.2249H47.6912C48.3051 54.2249 48.8018 53.7298 48.8018 53.1205C48.8018 52.51 48.3051 52.0161 47.6912 52.0161H13.1121C12.4981 52.0161 12.0015 52.51 12.0015 53.1205C12.0015 53.7298 12.4981 54.2249 13.1121 54.2249Z" fill="#1D3D4F"/>
<path d="M13.1121 60.1785H47.6912C48.3051 60.1785 48.8018 59.6847 48.8018 59.0741C48.8018 58.4648 48.3051 57.9697 47.6912 57.9697H13.1121C12.4981 57.9697 12.0015 58.4648 12.0015 59.0741C12.0015 59.6847 12.4981 60.1785 13.1121 60.1785Z" fill="#1D3D4F"/>
<path d="M13.1121 66.1317H47.6912C48.3051 66.1317 48.8018 65.6366 48.8018 65.0273C48.8018 64.4167 48.3051 63.9229 47.6912 63.9229H13.1121C12.4981 63.9229 12.0015 64.4167 12.0015 65.0273C12.0015 65.6378 12.4981 66.1317 13.1121 66.1317Z" fill="#1D3D4F"/>
<path d="M13.1121 72.0848H47.6912C48.3051 72.0848 48.8018 71.5909 48.8018 70.9804C48.8018 70.3711 48.3051 69.876 47.6912 69.876H13.1121C12.4981 69.876 12.0015 70.3711 12.0015 70.9804C12.0015 71.5909 12.4981 72.0848 13.1121 72.0848Z" fill="#1D3D4F"/>
<path d="M12.0015 41.2133C12.0015 41.8226 12.4981 42.3177 13.1121 42.3177H47.6912C48.3051 42.3177 48.8018 41.8226 48.8018 41.2133C48.8018 40.6027 48.3051 40.1089 47.6912 40.1089H13.1121C12.4981 40.1101 12.0015 40.6027 12.0015 41.2133Z" fill="#1D3D4F"/>
<path d="M13.1121 48.2708H47.6912C48.3051 48.2708 48.8018 47.777 48.8018 47.1664C48.8018 46.5571 48.3051 46.062 47.6912 46.062H13.1121C12.4981 46.062 12.0015 46.5559 12.0015 47.1664C12.0015 47.777 12.4981 48.2708 13.1121 48.2708Z" fill="#1D3D4F"/>
<path d="M9.01225 54.2286C9.6287 54.2286 10.1266 53.7323 10.1266 53.1205C10.1266 52.5075 9.62746 52.0112 9.01225 52.0112C8.39704 52.0112 7.89795 52.5075 7.89795 53.1205C7.89795 53.7323 8.39704 54.2286 9.01225 54.2286Z" fill="#1D3D4F"/>
<path d="M9.01225 42.3214C9.6287 42.3214 10.1266 41.8251 10.1266 41.2133C10.1266 40.6003 9.62746 40.104 9.01225 40.104C8.39704 40.104 7.89795 40.6003 7.89795 41.2133C7.89795 41.8251 8.39704 42.3214 9.01225 42.3214Z" fill="#1D3D4F"/>
<path d="M9.01225 48.2743C9.6287 48.2743 10.1266 47.778 10.1266 47.1662C10.1266 46.5544 9.62746 46.0581 9.01225 46.0581C8.39704 46.0581 7.89795 46.5544 7.89795 47.1662C7.89795 47.778 8.39704 48.2743 9.01225 48.2743Z" fill="#1D3D4F"/>
<path d="M9.01225 60.182C9.6287 60.182 10.1266 59.6857 10.1266 59.0739C10.1266 58.4621 9.62746 57.9658 9.01225 57.9658C8.39704 57.9658 7.89795 58.4621 7.89795 59.0739C7.89795 59.6857 8.39704 60.182 9.01225 60.182Z" fill="#1D3D4F"/>
<path d="M9.01225 66.1354C9.6287 66.1354 10.1266 65.6391 10.1266 65.0273C10.1266 64.4143 9.62746 63.918 9.01225 63.918C8.39704 63.918 7.89795 64.4143 7.89795 65.0273C7.89795 65.6403 8.39704 66.1354 9.01225 66.1354Z" fill="#1D3D4F"/>
<path d="M9.01225 72.0897C9.6287 72.0897 10.1266 71.5934 10.1266 70.9816C10.1266 70.3698 9.62746 69.8735 9.01225 69.8735C8.39704 69.8735 7.89795 70.3698 7.89795 70.9816C7.89795 71.5934 8.39704 72.0897 9.01225 72.0897Z" fill="#1D3D4F"/>
<path d="M71.9403 19.9541C71.4919 19.3902 71.0694 18.8571 70.8643 18.3669C70.6432 17.8374 70.5567 17.1372 70.4653 16.3952C70.3035 15.0967 70.1206 13.6237 69.0878 12.5967C68.0551 11.5697 66.5739 11.3879 65.2681 11.227C64.5219 11.1361 63.819 11.0488 63.2853 10.8302C62.7924 10.6262 62.2563 10.2049 61.688 9.76016C60.9073 9.14715 60.0499 8.47394 59.0344 8.16805V7.8339C59.0357 4.92854 56.6576 2.56494 53.7347 2.56494H7.47892C4.55604 2.56494 2.1792 4.92854 2.1792 7.83513V12.0967C2.1792 12.7061 2.67582 13.2011 3.28979 13.2011C3.90253 13.2011 4.40039 12.7061 4.40039 12.0967V7.8339C4.40039 6.14597 5.78153 4.77252 7.47892 4.77252H53.7347C55.4321 4.77252 56.8145 6.14597 56.8145 7.8339V8.16682C55.8003 8.47271 54.9417 9.14592 54.1609 9.75893C53.5939 10.2049 53.0577 10.625 52.5648 10.8289C52.0324 11.0488 51.3282 11.1348 50.5821 11.227C49.2763 11.3867 47.7951 11.5685 46.7623 12.5967C45.7296 13.6237 45.5467 15.0955 45.3849 16.3952C45.2935 17.1372 45.2058 17.8362 44.9846 18.3669C44.7808 18.8571 44.3571 19.3902 43.9086 19.9541C43.0785 20.9983 42.1396 22.1813 42.1396 23.6961C42.1396 25.2108 43.0797 26.3938 43.9086 27.4392C44.3571 28.0031 44.7796 28.5363 44.9846 29.0264C45.2058 29.5559 45.2935 30.2562 45.3849 30.9982C45.5467 32.2967 45.7296 33.7684 46.7623 34.7954C47.7951 35.8224 49.2751 36.0042 50.5821 36.1652C50.9712 36.2131 51.3492 36.2598 51.6964 36.3249V53.015C51.6964 53.6686 52.0645 54.2533 52.655 54.5396C53.2468 54.8258 53.9349 54.7533 54.4537 54.3504L56.8145 52.5126V72.6732C56.8145 74.3611 55.4334 75.7346 53.736 75.7346H7.47892C5.78153 75.7346 4.40039 74.3611 4.40039 72.6732V16.9578C4.40039 16.3485 3.90253 15.8534 3.28979 15.8534C2.67582 15.8534 2.1792 16.3485 2.1792 16.9578V72.6707C2.1792 75.5773 4.55604 77.9409 7.47892 77.9409H53.7347C56.6576 77.9409 59.0357 75.5773 59.0357 72.6707V52.5113L61.3965 54.3492C61.7041 54.5887 62.0722 54.7128 62.4453 54.7128C62.6985 54.7128 62.9555 54.655 63.1952 54.5396C63.7869 54.2533 64.1538 53.6698 64.1538 53.015V40.6933C64.1538 40.0828 63.6572 39.5889 63.0432 39.5889C62.4305 39.5889 61.9326 40.0828 61.9326 40.6933V51.9634L58.9813 49.6662C58.6836 49.4303 58.308 49.3025 57.9251 49.3025C57.5421 49.3025 57.1666 49.4315 56.8738 49.6625L53.9188 51.9622V37.4416C54.0003 37.5042 54.0806 37.5669 54.1622 37.632C55.2122 38.4575 56.4019 39.3912 57.9263 39.3912C59.4495 39.3912 60.6392 38.4563 61.6892 37.632C62.2563 37.186 62.7924 36.7647 63.2866 36.562C63.819 36.3433 64.5232 36.2561 65.2693 36.1639C66.5751 36.003 68.0563 35.8224 69.0891 34.7942C70.1218 33.7672 70.3047 32.2942 70.4665 30.9969C70.5592 30.2549 70.6456 29.5559 70.8668 29.0252C71.0718 28.5351 71.4956 28.0019 71.9428 27.4368C72.7729 26.3926 73.7118 25.2096 73.7118 23.6948C73.7094 22.1813 72.7692 20.9983 71.9403 19.9541ZM70.1972 26.0683C69.6746 26.7255 69.136 27.4049 68.8124 28.1788C68.4763 28.9859 68.3664 29.8704 68.2589 30.7254C68.1304 31.7623 68.0081 32.7426 67.5152 33.2328C67.0223 33.7229 66.0365 33.8446 64.9926 33.9723C64.1328 34.078 63.2433 34.1873 62.4317 34.5215C61.6534 34.8421 60.9703 35.3789 60.3093 35.8986C59.4693 36.5595 58.6749 37.1823 57.9226 37.1823C57.1703 37.1823 56.3772 36.5595 55.5359 35.8986C54.875 35.3802 54.1906 34.8433 53.4135 34.5215C53.3604 34.4993 53.1739 34.4293 53.1343 34.417C52.4005 34.1627 51.6148 34.0657 50.8526 33.9723C49.81 33.8433 48.8241 33.7217 48.33 33.2328C47.8371 32.7426 47.716 31.7635 47.5863 30.7254C47.4801 29.8704 47.3701 28.9859 47.0341 28.1788C46.7117 27.4049 46.1718 26.7255 45.6493 26.0683C44.9859 25.2329 44.3583 24.443 44.3583 23.6948C44.3583 22.9479 44.9859 22.158 45.6493 21.3226C46.1718 20.6654 46.7117 19.986 47.0341 19.2121C47.3714 18.405 47.4801 17.5217 47.5863 16.6655C47.7148 15.6286 47.8371 14.6483 48.33 14.1581C48.8229 13.668 49.8087 13.5476 50.8526 13.4186C51.7124 13.3129 52.6019 13.2036 53.4135 12.8682C54.1918 12.5476 54.875 12.0107 55.5359 11.4911C56.3747 10.8326 57.1678 10.2098 57.9177 10.2073C57.9189 10.2073 57.9214 10.2073 57.9226 10.2073C57.9238 10.2073 57.9251 10.2073 57.9276 10.2073C58.6774 10.2098 59.4705 10.8326 60.3093 11.4911C60.9703 12.0107 61.6534 12.5476 62.4317 12.8682C63.2433 13.2036 64.1328 13.3117 64.9926 13.4186C66.0353 13.5463 67.0211 13.668 67.5152 14.1581C68.0081 14.6483 68.1304 15.6274 68.2589 16.6642C68.3652 17.5205 68.4751 18.4038 68.8124 19.2109C69.136 19.9848 69.6746 20.6654 70.1972 21.3214C70.8606 22.1568 71.4882 22.9467 71.4882 23.6936C71.4894 24.443 70.8618 25.2329 70.1972 26.0683Z" fill="#1D3D4F"/>
<path d="M65.0529 20.1865L61.2739 19.1238L59.0886 15.8794C58.8279 15.4924 58.3918 15.2603 57.9236 15.2603C57.4554 15.2603 57.0193 15.4912 56.7587 15.8794L54.5733 19.1238L50.7956 20.1865C50.3434 20.3142 49.9889 20.6545 49.8431 21.098C49.6986 21.5415 49.785 22.0255 50.0753 22.3904L52.5041 25.4591L52.3534 29.3608C52.3348 29.8264 52.551 30.2698 52.9303 30.5426C53.1736 30.7195 53.4627 30.8104 53.7543 30.8104C53.9173 30.8104 54.0816 30.7809 54.2398 30.7244L57.9261 29.3767L61.6112 30.7244C62.051 30.8853 62.5402 30.8178 62.9195 30.5438C63.2987 30.2699 63.5149 29.8276 63.4964 29.362L63.3457 25.4603L65.7744 22.3916C66.0647 22.0255 66.1512 21.5415 66.0054 21.098C65.8596 20.6545 65.5038 20.3142 65.0529 20.1865ZM61.4123 24.3314C61.2072 24.5906 61.101 24.9161 61.1133 25.2466L61.2282 28.233L58.4079 27.2011C58.0953 27.0869 57.7507 27.0869 57.4394 27.2011L54.6178 28.233L54.7339 25.2454C54.7463 24.9161 54.64 24.5918 54.4337 24.3301L52.5757 21.9813L55.4677 21.168C55.7877 21.0771 56.0656 20.8769 56.2509 20.6017L57.9236 18.1177L59.5951 20.6017C59.7804 20.8769 60.0583 21.0771 60.3783 21.168L63.2703 21.9813L61.4123 24.3314Z" fill="#1D3D4F"/>
</g>
<defs>
<clipPath id="clip0">
<rect width="75.6044" height="80" fill="white"/>
</clipPath>
</defs>
</svg>
