<svg width="81" height="80" viewBox="0 0 81 80" fill="none" xmlns="http://www.w3.org/2000/svg">
<path d="M20.0026 35.3662C21.3882 36.7425 23.2324 37.5 25.1938 37.5C27.1551 37.5 28.9993 36.7425 30.3849 35.3662L31.1231 34.6337L29.3419 32.8662L28.6037 33.5987C26.7822 35.405 23.6053 35.405 21.7838 33.5987L21.0456 32.8662L19.2644 34.6337L20.0026 35.3662Z" fill="#2F4858"/>
<path d="M64.2441 21.25H66.7635V23.75H64.2441V21.25Z" fill="#2F4858"/>
<path d="M69.283 21.25H71.8023V23.75H69.283V21.25Z" fill="#2F4858"/>
<path d="M74.3218 21.25H76.8412V23.75H74.3218V21.25Z" fill="#2F4858"/>
<path d="M73.9527 26.6162L72.1715 28.3838L75.06 31.25H61.2097C61.5309 29.7013 61.7211 28.06 61.7249 26.29C61.7312 21.84 60.4728 17.5462 58.1562 13.75H75.0587L72.1702 16.6163L73.9514 18.3837L79.8821 12.5L73.9527 6.61625L72.1715 8.38375L75.06 11.25H56.4241C55.7791 10.4325 55.0989 9.63625 54.3456 8.88625C49.4618 4.03375 42.759 1.25 35.9567 1.25H24.7051C15.3141 1.25 6.85531 6.78625 3.1556 15.3538C1.89717 18.265 1.25977 21.35 1.25977 24.52C1.25977 31.545 4.34349 38.1963 9.71858 42.7687L9.77149 42.8138L8.5244 45.2887C7.89203 46.5425 7.55822 47.945 7.55822 49.3463C7.55822 53.9113 11.0009 57.7812 15.5635 58.3462L16.376 58.4475C17.2314 58.5537 17.9519 59.1075 18.3185 59.87L15.5472 60.3288C11.5955 60.9825 7.98273 63.005 5.37643 66.0238C2.72227 69.095 1.25977 73.0163 1.25977 77.0638V78.75H2.51946H37.8059C42.4415 78.6963 46.4058 75.6012 47.6138 71.25H47.8683C49.2577 71.25 50.3877 70.1288 50.3877 68.75V61.25C50.3877 59.9 49.3018 58.8025 47.9514 58.7588C48.0976 56.99 48.5284 55.3338 49.1758 53.75H75.06L72.1715 56.6162L73.9527 58.3838L79.8821 52.5L73.9527 46.6162L72.1715 48.3838L75.06 51.25H50.3801C51.4534 49.2912 52.7534 47.3937 54.1012 45.4538C56.5866 41.875 59.1224 38.2113 60.5534 33.75H75.06L72.1715 36.6162L73.9527 38.3838L79.8821 32.5L73.9527 26.6162ZM40.8783 15.8575C42.7401 16.63 44.8602 16.2175 46.2786 14.8075L46.3315 14.755L48.1152 16.525L48.0623 16.5775C46.6439 17.9862 46.2282 20.09 47.0205 21.975C47.7852 23.8125 49.5739 25 51.5781 25H51.6474V27.5H51.5781C49.5739 27.5 47.7852 28.6875 47.0041 30.565C46.2282 32.4112 46.6439 34.5138 48.0623 35.9225L48.1152 35.975L46.3315 37.745L46.2786 37.6925C44.8576 36.2837 42.7363 35.8713 40.838 36.6587C38.9875 37.4188 37.7908 39.1925 37.7908 41.1813V41.25H36.5311V35C41.3935 35 45.3489 31.0737 45.3489 26.25C45.3489 21.4263 41.3935 17.5 36.5311 17.5V11.25H37.7908V11.3188C37.7908 13.3075 38.9875 15.0825 40.8783 15.8575ZM47.8683 61.25V63.75H36.5311V61.25H47.8683ZM26.6589 28.26C27.9702 29.345 29.6557 30 31.4923 30H34.0117V46.25H33.7963C31.835 46.25 29.9908 45.4925 28.6039 44.1162L26.8227 45.8838C28.6857 47.7325 31.1623 48.75 33.7963 48.75H34.0117V53.75H33.5066C30.7541 53.75 28.0269 53.0487 25.6222 51.7225C21.3606 49.3737 18.4948 45.1 17.957 40.2925L16.7703 29.6925C17.4443 29.89 18.1572 30 18.8954 30H19.393C21.9212 30 24.4053 29.38 26.6589 28.26ZM36.5311 20C40.004 20 42.8295 22.8037 42.8295 26.25C42.8295 29.6963 40.004 32.5 36.5311 32.5V20ZM33.5066 56.25H34.0117V62.9775L26.5896 59.295L27.2799 55.1838C29.2753 55.88 31.3827 56.25 33.5066 56.25ZM26.4536 62.0225L32.6991 65.1213L26.4536 68.9938V62.0225ZM20.8442 59.3475C20.2345 57.5325 18.6032 56.205 16.6897 55.9675L15.8772 55.8662C12.5705 55.4562 10.0776 52.6525 10.0776 49.3463C10.0776 48.3313 10.3195 47.3162 10.7767 46.4075L12.9031 42.1862L11.3574 40.87C6.54165 36.775 3.77915 30.815 3.77915 24.52C3.77915 21.69 4.34853 18.9375 5.47091 16.3375C8.77382 8.69125 16.3231 3.75 24.7051 3.75H34.0117V27.5H31.4923C28.7134 27.5 26.4536 25.2575 26.4536 22.5C26.4536 19.7425 28.7134 17.5 31.4923 17.5V15C27.324 15 23.9342 18.3638 23.9342 22.5C23.9342 23.8862 24.3222 25.1825 24.986 26.2975C23.2288 27.075 21.3254 27.5 19.393 27.5H18.8954C16.1165 27.5 13.8567 25.2575 13.8567 22.5C13.8567 19.7425 16.1165 17.5 18.8954 17.5V15C14.7271 15 11.3373 18.3638 11.3373 22.5C11.3373 24.82 12.4042 26.895 14.0759 28.2725L15.4527 40.5688C16.0813 46.1788 19.4245 51.1662 24.3978 53.9075C24.5615 53.9975 24.7303 54.0775 24.8966 54.1625L24.0979 58.9137L20.8769 59.4463L20.8442 59.3475ZM7.28864 67.6488C9.51199 65.075 12.5907 63.3512 15.9616 62.7938L23.9342 61.4762V73.5062L34.0117 67.255V76.25H3.80308C3.98196 73.09 5.20385 70.0625 7.28864 67.6488ZM37.7908 76.25H36.5311V71.25H44.9622C43.8511 74.1813 41.0383 76.2138 37.7908 76.25ZM36.5311 68.75V66.25H47.8683V68.75H36.5311ZM52.0265 44.035C48.9617 48.445 45.8024 52.9975 45.3955 58.75H41.5698V52.7025C41.5698 50.8775 42.7426 49.2638 44.4873 48.685L43.6899 46.315C40.9148 47.2325 39.0505 49.8 39.0505 52.7025V58.75H36.5311V43.75H40.3102V41.1813C40.3102 40.2087 40.8959 39.34 41.8495 38.9487C42.764 38.57 43.8033 38.7713 44.4986 39.46L46.3327 41.28L51.6789 35.975L49.846 34.155C49.1519 33.465 48.9491 32.4338 49.3509 31.4788C49.7238 30.5813 50.598 30 51.5781 30H54.1667V22.5H51.5781C50.598 22.5 49.7226 21.9188 49.3283 20.9725C48.9466 20.065 49.1494 19.0338 49.8435 18.3438L51.6763 16.5238L46.3315 11.22L44.4961 13.04C43.802 13.7288 42.7628 13.93 41.7991 13.53C40.8946 13.1588 40.3102 12.2913 40.3102 11.3188V8.75H36.5311V3.77875C42.4705 3.93125 48.2853 6.4025 52.5619 10.6525C56.8549 14.9188 59.2143 20.47 59.2055 26.285C59.1942 33.72 55.5499 38.9637 52.0265 44.035Z" fill="#2F4858"/>
<path d="M64.2441 41.25H66.7635V43.75H64.2441V41.25Z" fill="#2F4858"/>
<path d="M69.283 41.25H71.8023V43.75H69.283V41.25Z" fill="#2F4858"/>
<path d="M74.3218 41.25H76.8412V43.75H74.3218V41.25Z" fill="#2F4858"/>
</svg>
