<svg width="244" height="44" viewBox="0 0 244 44" fill="none" xmlns="http://www.w3.org/2000/svg">
<path d="M34.4252 5.70172C32.4821 4.69133 30.371 3.99368 28.0919 3.58472L28.02 4.06585V4.11397C27.948 4.52293 27.876 4.9319 27.7801 5.34087C27.7561 5.50927 27.6841 5.87012 27.6841 5.87012V5.89418C27.6361 6.11069 27.5642 6.3272 27.5162 6.54371L27.4442 6.80834C27.3722 7.09702 27.2763 7.43381 27.1563 7.77061C26.7725 9.04562 26.2447 10.3447 25.597 11.6438L25.573 11.6919C25.501 11.8122 25.4531 11.9324 25.3811 12.0287C26.5326 12.2692 27.6121 12.6782 28.5957 13.2556C30.251 14.2419 31.5465 15.6131 32.5061 17.3934C33.4417 19.1736 33.9215 21.2184 33.9215 23.5279C33.9215 25.8133 33.4896 27.834 32.602 29.6142C31.7144 31.3944 30.4909 32.7657 28.9076 33.728C27.3243 34.6902 25.525 35.1714 23.4859 35.1714H16.313V22.3731C15.1135 23.1911 13.89 23.8646 12.9544 24.3458L12.9304 24.3698C11.6589 24.9953 10.3635 25.5246 9.06804 25.9335C8.73218 26.0538 8.39633 26.15 8.10845 26.2222L7.91653 26.2463C7.65264 26.3184 7.41275 26.3906 7.17285 26.4387L7.10088 26.4628C6.93295 26.4868 6.76502 26.535 6.59709 26.559C6.30922 26.6071 6.02134 26.6793 5.70947 26.7274V39.9346C5.70947 42.0516 7.41275 43.7597 9.52385 43.7597H22.7422C27.0604 43.7597 30.8748 42.9177 34.2093 41.2096C37.5439 39.5016 40.1108 37.12 41.958 34.0166C43.7812 30.9374 44.6929 27.401 44.6929 23.4076C44.6929 19.4382 43.7812 15.9018 41.982 12.8225C40.2068 9.79139 37.6639 7.40976 34.4252 5.70172Z" fill="#DB0606"/>
<path d="M74.1281 15.3479C71.7291 13.4233 68.3946 12.437 64.0764 12.437C61.5815 12.437 59.1585 12.7016 56.8315 13.2549C54.5045 13.8083 52.0575 14.6262 49.5146 15.7569L52.3454 22.5168C54.0007 21.723 55.656 21.1215 57.2873 20.7126C58.9186 20.3036 60.406 20.0871 61.7014 20.0871C63.6206 20.0871 65.108 20.472 66.1155 21.2659C67.1471 22.0598 67.6509 23.1904 67.6509 24.6579V24.9947H59.4943C55.632 25.0428 52.6812 25.8607 50.6181 27.4726C48.555 29.0844 47.5234 31.3457 47.5234 34.2325C47.5234 37.0953 48.483 39.3807 50.3782 41.1368C52.2734 42.893 54.8883 43.759 58.1989 43.759C62.3971 43.759 65.5398 42.46 67.6269 39.8618V43.5425H77.7266V23.4791C77.7506 19.9909 76.5271 17.2724 74.1281 15.3479ZM67.6749 33.0056C67.363 34.1604 66.6433 35.1226 65.4678 35.8443C64.3163 36.566 62.9729 36.951 61.4135 36.951C60.0941 36.951 59.0625 36.6382 58.3188 36.0127C57.5752 35.3873 57.1913 34.5453 57.1913 33.5108C57.1913 31.4179 58.6307 30.3594 61.5335 30.3594H67.6509V33.0056H67.6749Z" fill="#DB0606"/>
<path d="M99.2938 35.3398C97.4226 35.3398 96.487 34.2091 96.487 31.9237V19.6788H104.859V12.582H96.487V3.58472H85.8835V12.582H81.3975V19.6788H85.8835V33.6077C85.8835 36.8554 86.8671 39.3813 88.8583 41.2337C90.8254 43.0861 93.4163 44.0002 96.607 44.0002C98.2143 44.0002 99.7736 43.8078 101.333 43.4229C102.892 43.038 104.26 42.5087 105.459 41.8351L103.42 34.2813C101.837 34.9789 100.469 35.3398 99.2938 35.3398Z" fill="#DB0606"/>
<path d="M134.103 15.3238C131.704 13.3993 128.369 12.437 124.051 12.437C121.556 12.437 119.133 12.7016 116.806 13.2549C114.479 13.8083 112.032 14.6262 109.489 15.7569L112.32 22.4928C113.975 21.6989 115.631 21.0975 117.262 20.6885C118.893 20.2795 120.381 20.063 121.676 20.063C123.595 20.063 125.083 20.4479 126.09 21.2418C127.122 22.0357 127.625 23.1423 127.625 24.6098V24.9466H119.469C115.607 24.9947 112.656 25.8126 110.593 27.4244C108.53 29.0362 107.498 31.2735 107.498 34.1604C107.498 36.9991 108.458 39.3085 110.353 41.0406C112.248 42.7727 114.863 43.6628 118.173 43.6628C122.372 43.6628 125.514 42.3637 127.601 39.7897V43.4704H137.701V23.431C137.725 19.9668 136.502 17.2484 134.103 15.3238ZM127.649 32.9335C127.338 34.0882 126.618 35.0505 125.442 35.7722C124.291 36.4939 122.947 36.8547 121.388 36.8547C120.069 36.8547 119.037 36.542 118.293 35.9406C117.55 35.3151 117.166 34.4972 117.166 33.4387C117.166 31.3457 118.605 30.2872 121.508 30.2872H127.625V32.9335H127.649Z" fill="#DB0606"/>
<path d="M159.292 35.3145C157.421 35.3145 156.461 34.1598 156.461 31.8744V19.5814H164.882V12.4846H156.461V3.43921H145.834V12.4846H141.324V19.6054H145.834V33.5825C145.834 36.8301 146.817 39.3802 148.809 41.2325C150.8 43.0849 153.391 43.9991 156.581 43.9991C158.189 43.9991 159.772 43.8066 161.331 43.4217C162.891 43.0368 164.282 42.5075 165.481 41.834L163.442 34.232C161.835 34.9537 160.468 35.3145 159.292 35.3145Z" fill="#2F4858"/>
<path d="M180.211 17.6579V12.4375H169.919V43.7836H180.211V27.7858C180.451 25.8131 181.315 24.2495 182.802 23.1188C184.313 21.9881 186.28 21.4107 188.703 21.4107C189.399 21.4107 189.927 21.4348 190.263 21.4589V12.0286C188.056 12.0286 186.113 12.5097 184.409 13.472C182.706 14.4343 181.291 15.8295 180.211 17.6579Z" fill="#2F4858"/>
<path d="M204.993 12.437H194.773V43.7831H204.993V12.437Z" fill="#2F4858"/>
<path d="M199.811 0C198.228 0 196.932 0.505194 195.901 1.53964C194.869 2.57408 194.365 3.89721 194.365 5.50902C194.365 7.09677 194.869 8.39584 195.901 9.45435C196.932 10.4888 198.228 11.018 199.811 11.018C201.394 11.018 202.69 10.4888 203.721 9.45435C204.753 8.4199 205.257 7.09677 205.257 5.50902C205.257 3.89721 204.753 2.57408 203.721 1.53964C202.69 0.505194 201.394 0 199.811 0Z" fill="#DB0606"/>
<path d="M233.444 27.7372L243.328 12.437H232.053L226.607 21.2418L221.593 12.437H209.814L219.746 27.7372L209.119 43.7831H220.442L226.607 34.2085L232.173 43.7831H244L233.444 27.7372Z" fill="#2F4858"/>
<path d="M1.83428 16.739L1.79395 22.3442L7.38356 22.3847L7.42389 16.7794L1.83428 16.739Z" fill="#DB0606"/>
<path d="M7.53064 11.2864L7.4917 16.6992L12.8894 16.7383L12.9283 11.3255L7.53064 11.2864Z" fill="#DB0606"/>
<path d="M1.17427 7.83136L1.14502 11.897L5.1753 11.9261L5.20455 7.86052L1.17427 7.83136Z" fill="#DB0606"/>
<path d="M0.0334298 0.583872L0.0078125 4.14429L3.5583 4.16998L3.58392 0.609561L0.0334298 0.583872Z" fill="#ED1C24"/>
<path d="M7.45207 1.43552L7.42334 5.42896L11.3817 5.45759L11.4104 1.46416L7.45207 1.43552Z" fill="#ED1C24"/>
<path d="M18.7871 0.205633L18.7485 5.57031L24.0983 5.60902L24.1369 0.24434L18.7871 0.205633Z" fill="#ED1C24"/>
<path d="M13.112 5.80145L13.0732 11.1902L18.423 11.2289L18.4617 5.84016L13.112 5.80145Z" fill="#DB0606"/>
</svg>
